<svg viewBox="0 0 300 300" xmlns="http://www.w3.org/2000/svg">
  <path fill="#ff4b03" d="M204.688 161.72v.386l-54.593 31.251-71.377-40.897v18.905l35.688 20.642 35.689 20.448 35.495-20.448 35.688-20.642v-50.542l-16.59 9.453-54.593 31.251-54.787-31.251v-12.732l19.098 10.995 35.689 20.449 35.495-20.449 19.098-10.995 16.59-9.646V88.993L185.59 68.544l-35.495-20.641-35.689 20.641-24.5 14.083 16.591 9.645 16.204-9.452 27.394-15.626 27.2 15.626 27.2 15.818-54.4 31.252L95.5 98.638l-16.783-9.645v50.735l16.59 9.453 19.098 10.996 35.689 20.641 35.495-20.641 19.098-10.996z"/>
  <path d="M155.05 231.37c-1.655 0-3.14.29-4.455.875s-2.35 1.426-3.106 2.522-1.13 2.422-1.13 3.98c0 1.315.218 2.409.656 3.285a6.397 6.397 0 0 0 1.717 2.12c.73.535 1.52.986 2.373 1.35.876.366 1.741.693 2.593.985.877.268 1.667.573 2.373.914.73.341 1.316.756 1.754 1.243.438.486.656 1.119.656 1.898 0 .9-.388 1.606-1.168 2.117-.754.511-1.778.768-3.068.768-1.436 0-2.652-.267-3.65-.803-.999-.56-1.876-1.34-2.631-2.338l-3.285 3.287c1.192 1.412 2.52 2.47 3.98 3.176 1.485.706 3.26 1.06 5.33 1.06 2.922 0 5.223-.681 6.902-2.044s2.52-3.24 2.52-5.625c0-1.34-.218-2.459-.656-3.36-.439-.925-1.024-1.68-1.754-2.263a9.316 9.316 0 0 0-2.373-1.424 33.354 33.354 0 0 0-2.592-.987 32.474 32.474 0 0 1-2.375-.914c-.706-.316-1.279-.692-1.717-1.13-.438-.439-.656-1.011-.656-1.717 0-.828.329-1.46.986-1.899.658-.438 1.557-.658 2.701-.658.999 0 1.887.195 2.666.584.804.39 1.584.998 2.338 1.826l3.287-3.287c-.9-1.047-2.058-1.897-3.47-2.555s-2.993-.986-4.746-.986zm-39.951 1.096v7.34h-4.127v4.199h4.127v13.439h4.785v-13.44h4.125v-4.199h-4.125v-7.34H115.1zm54.279 0v7.34h-4.127v4.199h4.127v13.439h4.783v-13.44h4.127v-4.199h-4.127v-7.34h-4.783zm-120.52 6.937c-1.728 0-3.299.415-4.71 1.242a9.067 9.067 0 0 0-3.36 3.287c-.804 1.364-1.205 2.921-1.205 4.674 0 1.778.412 3.36 1.24 4.748a9.267 9.267 0 0 0 3.433 3.285c1.437.78 3.08 1.17 4.93 1.17 1.437 0 2.763-.256 3.98-.767a8.139 8.139 0 0 0 3.141-2.264l-2.812-2.812a5.324 5.324 0 0 1-1.899 1.388c-.73.292-1.546.438-2.447.438-.998 0-1.874-.207-2.629-.621a4.52 4.52 0 0 1-1.752-1.826 5.495 5.495 0 0 1-.363-1.026l12.889-.033c.097-.414.157-.78.181-1.096.05-.34.075-.67.075-.986 0-1.68-.378-3.178-1.133-4.492a7.927 7.927 0 0 0-3.067-3.14c-1.29-.78-2.788-1.169-4.492-1.169zm51.572 0c-1.753 0-3.349.415-4.785 1.242a8.99 8.99 0 0 0-3.397 3.287c-.827 1.364-1.24 2.909-1.24 4.637 0 1.729.413 3.3 1.24 4.711a9.656 9.656 0 0 0 3.397 3.324c1.436.804 3.043 1.205 4.82 1.205s3.373-.401 4.785-1.205a9.264 9.264 0 0 0 3.395-3.324c.828-1.412 1.242-2.982 1.242-4.71s-.414-3.274-1.242-4.637a8.985 8.985 0 0 0-3.395-3.288c-1.412-.827-3.018-1.242-4.82-1.242zm33.947 0c-1.729 0-3.299.415-4.71 1.242a9.071 9.071 0 0 0-3.362 3.287c-.804 1.364-1.205 2.921-1.205 4.674 0 1.778.414 3.36 1.242 4.748a9.267 9.267 0 0 0 3.433 3.285c1.437.78 3.08 1.17 4.93 1.17 1.437 0 2.763-.256 3.98-.767a8.139 8.139 0 0 0 3.141-2.264l-2.812-2.812a5.323 5.323 0 0 1-1.899 1.388c-.73.292-1.546.438-2.447.438-.998 0-1.874-.207-2.629-.621a4.52 4.52 0 0 1-1.752-1.826 5.496 5.496 0 0 1-.363-1.026l12.889-.033c.097-.414.157-.78.182-1.096.048-.34.074-.67.074-.986 0-1.68-.378-3.178-1.133-4.492a7.932 7.932 0 0 0-3.068-3.14c-1.29-.78-2.786-1.169-4.49-1.169zm54.424 0c-1.753 0-3.347.415-4.783 1.242a8.99 8.99 0 0 0-3.397 3.287c-.827 1.364-1.242 2.909-1.242 4.637 0 1.729.415 3.3 1.242 4.711a9.656 9.656 0 0 0 3.397 3.324c1.436.804 3.043 1.205 4.82 1.205s3.371-.401 4.783-1.205a9.27 9.27 0 0 0 3.397-3.324c.828-1.412 1.242-2.982 1.242-4.71s-.414-3.274-1.242-4.637a8.99 8.99 0 0 0-3.397-3.288c-1.412-.827-3.018-1.242-4.82-1.242zm77.885 0c-1.729 0-3.299.415-4.71 1.242a9.072 9.072 0 0 0-3.362 3.287c-.804 1.364-1.205 2.921-1.205 4.674 0 1.778.414 3.36 1.242 4.748a9.267 9.267 0 0 0 3.434 3.285c1.436.78 3.079 1.17 4.93 1.17 1.436 0 2.762-.256 3.98-.767a8.139 8.139 0 0 0 3.14-2.264l-2.812-2.812a5.323 5.323 0 0 1-1.899 1.388c-.73.292-1.546.438-2.447.438-.998 0-1.874-.207-2.629-.621a4.52 4.52 0 0 1-1.752-1.826 5.496 5.496 0 0 1-.363-1.026l12.889-.033c.097-.414.157-.78.182-1.096.048-.34.074-.67.074-.986 0-1.68-.378-3.178-1.133-4.492a7.932 7.932 0 0 0-3.068-3.14c-1.29-.78-2.786-1.169-4.49-1.169zm-231.28.037c-1.972 0-3.482.633-4.53 1.899l-.034.047v-1.58h-4.786v17.638h4.786v-9.75c0-1.314.316-2.288.949-2.921.657-.658 1.497-.987 2.52-.987.486 0 .911.073 1.277.219.39.146.718.366.986.658l2.994-3.433c-.56-.633-1.18-1.084-1.861-1.352-.682-.292-1.449-.437-2.301-.437zm34.814 0c-1.29 0-2.446.28-3.469.84a6.18 6.18 0 0 0-1.46 1.065v-1.54h-4.784v17.64h4.783v-10.409c0-.681.146-1.267.438-1.753.292-.487.694-.85 1.205-1.094a3.644 3.644 0 0 1 1.717-.403c.95 0 1.742.293 2.375.877.657.56.984 1.35.984 2.373v10.408h4.785v-10.408c0-.681.146-1.267.438-1.754.292-.486.694-.85 1.205-1.093a3.788 3.788 0 0 1 1.717-.403c.95 0 1.74.293 2.373.877.657.56.986 1.35.986 2.373v10.408h4.783v-11.176c0-1.412-.303-2.628-.912-3.65s-1.435-1.802-2.482-2.338c-1.047-.56-2.229-.84-3.543-.84s-2.507.293-3.578.877a6.604 6.604 0 0 0-2.166 1.814 5.942 5.942 0 0 0-2.07-1.851c-.999-.56-2.108-.84-3.325-.84zm140.43 0c-1.972 0-3.482.633-4.53 1.899l-.034.047v-1.58H201.3v17.638h4.786v-9.75c0-1.314.316-2.288.949-2.921.657-.658 1.497-.987 2.52-.987.486 0 .911.073 1.277.219.39.146.718.366.986.658l2.994-3.433c-.56-.633-1.18-1.084-1.861-1.352-.682-.292-1.449-.437-2.3-.437zm12.721 0c-1.607 0-3.055.402-4.346 1.205-1.29.804-2.3 1.9-3.03 3.288-.731 1.387-1.097 2.958-1.097 4.71 0 1.729.366 3.287 1.096 4.674s1.741 2.484 3.031 3.287c1.29.804 2.74 1.205 4.346 1.205 1.266 0 2.398-.256 3.397-.767a6.515 6.515 0 0 0 1.716-1.328v1.73h4.746v-17.639h-4.746v1.713a6.041 6.041 0 0 0-1.716-1.31c-.999-.512-2.131-.768-3.397-.768zm21.25 0c-1.582 0-3.007.39-4.273 1.168a8.15 8.15 0 0 0-2.994 3.104c-.707 1.315-1.06 2.801-1.06 4.457s.353 3.151 1.06 4.49a8.356 8.356 0 0 0 2.994 3.178c1.266.754 2.69 1.133 4.273 1.133 1.29 0 2.435-.244 3.434-.731a6.265 6.265 0 0 0 1.57-1.117v1.482c0 1.34-.44 2.386-1.316 3.14-.853.756-2.021 1.132-3.506 1.132-1.193 0-2.215-.218-3.067-.657-.828-.413-1.582-1.022-2.263-1.826l-3.032 3.031c.852 1.218 1.996 2.154 3.432 2.811 1.436.682 3.092 1.023 4.967 1.023s3.53-.365 4.967-1.095 2.556-1.752 3.359-3.067c.828-1.29 1.242-2.813 1.242-4.566v-16.725h-4.748v1.518a6.262 6.262 0 0 0-1.57-1.116c-.998-.51-2.154-.767-3.469-.767zm-195.77 3.944c.9 0 1.655.194 2.264.584.633.365 1.107.901 1.424 1.607.163.34.292.72.388 1.139l-8.525.023c.085-.32.187-.626.322-.906.39-.78.937-1.375 1.643-1.79.706-.437 1.535-.657 2.484-.657zm85.52 0c.9 0 1.655.194 2.264.584.633.365 1.107.901 1.424 1.607.163.34.292.72.388 1.139l-8.525.023c.085-.32.187-.626.322-.906.39-.78.937-1.375 1.643-1.79.706-.437 1.535-.657 2.484-.657zm132.31 0c.9 0 1.655.194 2.264.584.633.365 1.107.901 1.424 1.607.163.34.292.72.388 1.139l-8.525.023c.085-.32.187-.626.322-.906.39-.78.937-1.375 1.643-1.79.706-.437 1.535-.657 2.484-.657zm-21.113.402c.876 0 1.63.195 2.264.584.657.365 1.17.876 1.535 1.533.365.658.547 1.425.547 2.301 0 .852-.182 1.62-.547 2.3a4.132 4.132 0 0 1-1.535 1.571c-.633.365-1.387.549-2.264.549-.876 0-1.643-.194-2.3-.584a4.127 4.127 0 0 1-1.534-1.57 4.725 4.725 0 0 1-.549-2.266c0-.852.184-1.606.549-2.264a3.813 3.813 0 0 1 1.533-1.57c.658-.39 1.425-.584 2.301-.584zm-21.322.072c.9 0 1.679.208 2.336.621.682.39 1.205.95 1.57 1.68.39.706.586 1.522.586 2.447 0 1.413-.414 2.568-1.242 3.47-.828.876-1.911 1.314-3.25 1.314-.876 0-1.656-.195-2.338-.584a4.533 4.533 0 0 1-1.57-1.68c-.365-.73-.547-1.57-.547-2.52 0-.925.182-1.74.547-2.447.39-.73.913-1.29 1.57-1.68.682-.413 1.461-.62 2.338-.62zm-123.82.037c.9 0 1.691.208 2.373.622.682.39 1.218.936 1.607 1.642.39.706.584 1.522.584 2.447 0 .926-.194 1.752-.584 2.483a4.104 4.104 0 0 1-1.607 1.68c-.682.39-1.472.585-2.373.585-.876 0-1.656-.196-2.338-.585a4.439 4.439 0 0 1-1.607-1.68c-.39-.73-.584-1.557-.584-2.483 0-.925.194-1.74.584-2.447a4.174 4.174 0 0 1 1.607-1.642c.682-.414 1.462-.622 2.338-.622zm88.371 0c.9 0 1.691.208 2.373.622.682.39 1.218.936 1.607 1.642.39.706.584 1.522.584 2.447 0 .926-.194 1.752-.584 2.483a4.104 4.104 0 0 1-1.607 1.68c-.682.39-1.472.585-2.373.585-.876 0-1.656-.196-2.338-.585a4.435 4.435 0 0 1-1.605-1.68c-.39-.73-.584-1.557-.584-2.483 0-.925.194-1.74.584-2.447a4.169 4.169 0 0 1 1.605-1.642c.682-.414 1.462-.622 2.338-.622z" aria-label="remoteStorage"/>
</svg>